PathFileType	4	(X/Y/Z)	C:\Users\Basilio\Documents\Thesis Gigler\squatting_fais\c3dfiles\077\SLS_back_pre4\markers_experimental.trc
DataRate	CameraRate	NumFrames	NumMarkers	Units	OrigDataRate	OrigDataStartFrame	OrigNumFrames
200.000000	200.000000	4	60	mm	200.000000	525	1402
Frame#	Time	FHD			LBHD			RBHD			C7			T10			CLAV			LSHO			LUUPA			LMUPA			LDUPA			LLEP			LMEP			LRAD			LUL			LRFIN			RSHO			RUPA1			RMUPA			RDUPA			RLEP			RMEP			RRAD			RUL			RUFIN			LASI			RASI			USACR			LSACR			RSACR			LTHI1			LTHI2			LTHI3			LTHI4			LLFC			LMFC			LTIB1			LTIB2			LTIB3			LTIB4			LLMAL			LHEE			LMT1			LMT2			LMT5			RTHI			RTHI2			RTHI3			RTHI4			RLFC			RMFC			RTIB1			RTIB2			RTIB3			RTIB4			RLMAL			RMMAL			RHEE			RMT1			RMT2			RMT5			
		X1	Y1	Z1	X2	Y2	Z2	X3	Y3	Z3	X4	Y4	Z4	X5	Y5	Z5	X6	Y6	Z6	X7	Y7	Z7	X8	Y8	Z8	X9	Y9	Z9	X10	Y10	Z10	X11	Y11	Z11	X12	Y12	Z12	X13	Y13	Z13	X14	Y14	Z14	X15	Y15	Z15	X16	Y16	Z16	X17	Y17	Z17	X18	Y18	Z18	X19	Y19	Z19	X20	Y20	Z20	X21	Y21	Z21	X22	Y22	Z22	X23	Y23	Z23	X24	Y24	Z24	X25	Y25	Z25	X26	Y26	Z26	X27	Y27	Z27	X28	Y28	Z28	X29	Y29	Z29	X30	Y30	Z30	X31	Y31	Z31	X32	Y32	Z32	X33	Y33	Z33	X34	Y34	Z34	X35	Y35	Z35	X36	Y36	Z36	X37	Y37	Z37	X38	Y38	Z38	X39	Y39	Z39	X40	Y40	Z40	X41	Y41	Z41	X42	Y42	Z42	X43	Y43	Z43	X44	Y44	Z44	X45	Y45	Z45	X46	Y46	Z46	X47	Y47	Z47	X48	Y48	Z48	X49	Y49	Z49	X50	Y50	Z50	X51	Y51	Z51	X52	Y52	Z52	X53	Y53	Z53	X54	Y54	Z54	X55	Y55	Z55	X56	Y56	Z56	X57	Y57	Z57	X58	Y58	Z58	X59	Y59	Z59	X60	Y60	Z60	

526	2.625	-199.2763214111329	1799.984130859375	-1083.384643554688	-342.7407531738282	1691.169555664063	-1145.942749023438	-342.4451293945313	1688.591186523438	-999.6201171875002	-390.6793212890626	1548.388061523438	-1082.927856445313	-406.3786010742189	1215.810668945313	-1057.344482421875	-222.0404510498047	1497.807250976563	-1080.503173828125	-270.5286254882813	1542.49072265625	-1249.089233398438	-118.4319152832032	1500.2060546875	-1373.3125	-88.11334228515626	1534.348510742188	-1352.475219726563	-51.07798767089845	1501.779541015625	-1389.856689453125	12.00497150421143	1516.437622070313	-1395.329833984375	26.09050178527833	1448.45556640625	-1368.32275390625	315.6703186035157	1569.224609375	-1316.34814453125	308.3454589843751	1572.425537109375	-1395.569580078125	407.4203491210939	1602.663452148438	-1337.568237304688	-262.4748229980469	1551.786376953125	-921.5146484375002	-115.8275985717774	1525.67578125	-798.5252685546877	-89.07562255859376	1553.133178710938	-828.9255371093752	-46.73655700683594	1530.552856445313	-790.1060791015627	19.39932441711426	1539.873413085938	-796.588317871094	29.44317245483399	1465.954956054688	-819.8630371093752	301.8276062011719	1576.1318359375	-888.1964111328127	314.3736267089844	1590.085205078125	-810.4252929687502	394.1016235351564	1610.578979492188	-892.9515380859377	-225.9459228515626	1005.622009277344	-1177.904174804688	-238.8181610107422	1026.905029296875	-898.128112792969	-423.873260498047	1120.3310546875	-1049.480834960938	-431.813934326172	1091.076904296875	-1078.902099609375	-436.3521118164064	1088.884399414063	-1023.1845703125	-247.7446289062501	797.0709228515627	-1230.25732421875	-198.5460357666016	728.5101318359376	-1224.07080078125	-152.0784759521485	742.8706665039064	-1218.830322265625	-214.2901611328126	672.1145019531251	-1206.667846679688	-154.9159698486328	535.7194824218751	-1171.56689453125	-150.431625366211	529.8221435546876	-1041.530029296875	-187.8717651367188	322.7677001953126	-1073.637573242188	-229.8877410888672	280.3378601074219	-1141.146240234375	-202.7760314941407	272.7350463867188	-1103.047485351563	-237.7695770263672	207.2503662109376	-1062.2744140625	-330.9220581054688	107.6576843261719	-1099.897827148438	-396.197723388672	82.13864135742189	-1044.548950195313	-187.46728515625	54.58811187744142	-1021.8291015625	-182.0563049316407	57.92409515380861	-1064.521240234375	-304.2430419921876	125.1860656738282	-1014.545104980469	-218.8772583007813	724.5840454101564	-805.9306640625002	-159.2921905517578	688.1902465820314	-801.4985961914065	-128.6903839111328	700.0894165039064	-807.3973388671877	-163.3184967041016	605.9379882812501	-809.5668945312502	-169.2364044189453	569.1885986328126	-813.4673461914065	-140.6450347900391	537.2330322265626	-939.017517089844	-270.5120544433594	491.0578002929689	-856.2280883789065	-362.4424743652344	543.6616821289064	-840.0280761718752	-356.2777099609376	501.616180419922	-860.2356567382815	-390.9476013183595	491.6024475097657	-906.9681396484377	-581.8935546875001	535.9453735351564	-903.155944824219	-551.8606567382814	513.4783935546876	-987.0684204101565	-618.8231811523439	595.0160522460939	-963.905212402344	-596.7366333007814	370.7615966796876	-971.1717529296877	-605.3991088867189	369.7796630859376	-933.5188598632815	-639.7497558593751	381.1694335937501	-892.361999511719	
527	2.63	-198.2115936279297	1798.789794921875	-1083.477416992188	-342.1193542480469	1689.901000976563	-1145.85107421875	-341.4149780273438	1687.155395507813	-999.671325683594	-389.8470764160157	1547.339965820313	-1082.90771484375	-406.4295043945314	1214.731079101563	-1057.299926757813	-221.2994079589844	1496.364135742188	-1080.4638671875	-269.6432189941407	1541.290649414063	-1248.975830078125	-117.7966537475586	1499.058715820313	-1373.412353515625	-87.21105194091798	1532.883422851563	-1352.37451171875	-50.9563331604004	1501.159912109375	-1390.067993164063	12.21592044830323	1515.25244140625	-1395.320068359375	26.77290153503419	1447.172607421875	-1368.955688476563	316.4907226562501	1567.922241210938	-1316.345581054688	308.8568725585938	1571.211669921875	-1395.616333007813	409.5510559082032	1601.221069335938	-1337.95263671875	-261.6251525878907	1550.494262695313	-921.5969238281252	-115.2046051025391	1524.157592773438	-798.5485839843752	-88.30786895751955	1551.670288085938	-828.9436035156252	-46.03627395629884	1529.15087890625	-790.1362304687502	20.04546165466309	1538.32568359375	-796.7263793945315	30.14573860168458	1464.493896484375	-819.7229614257815	304.1279602050782	1576.36767578125	-890.4162597656252	315.1672058105469	1588.521850585938	-810.603210449219	394.9412536621095	1609.095825195313	-893.355651855469	-226.2781372070313	1004.363525390625	-1177.970581054688	-239.5909423828126	1025.238403320313	-898.2302246093752	-424.3296508789064	1119.374633789063	-1049.5673828125	-431.3114318847657	1090.520751953125	-1079.386840820313	-435.9282531738282	1087.869995117188	-1023.580444335938	-247.7947082519532	796.083190917969	-1230.365600585938	-198.4272766113282	727.3572387695314	-1223.9326171875	-151.9647216796875	741.8851318359376	-1218.804931640625	-213.0503845214844	670.7189331054689	-1206.67626953125	-153.8948211669922	534.8928833007814	-1171.42724609375	-149.5794219970703	529.1695556640626	-1041.441772460938	-187.4381561279297	322.1286926269532	-1073.517944335938	-229.2058868408204	279.9469299316407	-1141.073486328125	-202.3916625976563	271.9673461914063	-1102.708862304688	-237.5534210205079	206.8957214355469	-1062.038940429688	-330.9996643066407	107.7150802612305	-1099.84326171875	-396.2630615234376	82.03049468994142	-1044.457641601563	-187.5011596679688	54.6228370666504	-1021.73583984375	-182.0491638183594	57.79184341430665	-1064.380249023438	-304.2843933105469	124.9929809570313	-1014.390258789063	-220.7494201660157	722.7688598632814	-805.9681396484377	-161.2557983398438	687.0019531250001	-801.3167114257815	-130.5590362548828	698.3618164062501	-807.1104125976565	-165.6746673583985	603.9341430664064	-809.5584106445315	-171.7566223144532	567.0415039062501	-813.8510742187502	-142.6570587158203	534.9672851562501	-938.9568481445315	-273.3778381347657	489.2781677246095	-856.4409790039065	-365.0370788574219	542.2406616210939	-840.4348754882815	-359.1142272949219	500.2824096679689	-860.779479980469	-393.1618957519532	490.1584472656251	-908.9285278320315	-584.2831420898439	535.5412597656251	-904.042663574219	-554.7141723632814	513.2923583984376	-988.1482543945315	-620.5513916015626	594.6472778320314	-964.6619262695315	-599.9236450195314	370.3506164550782	-972.3855590820315	-608.7172241210939	369.3576660156251	-934.695251464844	-642.8750610351564	381.1374511718751	-893.3950195312502	
528	2.635	-197.2329711914063	1797.308471679688	-1083.309814453125	-341.0369873046876	1688.964233398438	-1145.872924804688	-339.9639587402344	1685.865478515625	-999.3320922851565	-388.954559326172	1545.921875	-1082.984130859375	-406.4541625976564	1213.684326171875	-1057.353149414063	-220.5373229980469	1494.64599609375	-1080.390258789063	-268.7167053222657	1539.579711914063	-1248.82666015625	-117.0662536621094	1497.740234375	-1373.452392578125	-86.10150146484376	1531.548828125	-1352.231201171875	-50.38874435424806	1499.821533203125	-1390.1728515625	13.18200016021729	1513.998168945313	-1395.556884765625	28.00181007385255	1446.038818359375	-1368.250244140625	317.3223266601563	1566.73486328125	-1316.446655273438	310.2035522460938	1569.986450195313	-1395.670043945313	409.7133789062501	1600.596923828125	-1337.958374023438	-260.8452453613282	1549.031982421875	-921.620300292969	-114.288200378418	1523.065673828125	-798.516784667969	-87.48902893066408	1550.339721679688	-828.8631591796877	-45.36466217041016	1527.632446289063	-790.1571044921877	20.77983665466309	1536.923706054688	-796.885681152344	30.8509693145752	1463.25390625	-819.7090454101565	304.8588256835938	1574.802978515625	-890.5617675781252	315.9736328125001	1587.081909179688	-810.8487548828127	395.6583557128907	1607.640014648438	-893.417907714844	-226.5379180908204	1003.116638183594	-1178.040405273438	-240.1590576171876	1023.580200195313	-898.0132446289065	-424.7438049316407	1118.132568359375	-1049.579956054688	-432.4528198242189	1089.168823242188	-1079.106689453125	-437.7011108398439	1086.776489257813	-1023.339416503906	-247.8340759277344	794.7999267578127	-1230.416137695313	-197.9166717529297	726.3150024414064	-1223.94482421875	-151.7157440185547	741.1152343750001	-1218.803344726563	-212.360336303711	669.5911254882814	-1206.577758789063	-152.9463806152344	533.9500732421876	-1171.3125	-148.6804809570313	528.4205932617189	-1041.34130859375	-186.9635162353516	321.8226928710938	-1073.408569335938	-228.5042419433594	279.5584106445313	-1140.910034179688	-202.2007598876954	271.5890197753907	-1102.573852539063	-237.3180084228516	206.4800262451172	-1061.765014648438	-330.6069335937501	107.4068298339844	-1099.755737304688	-396.3273925781251	81.93161773681642	-1044.392211914063	-187.5225219726563	54.57531738281251	-1021.698791503906	-182.1402130126953	57.93142700195314	-1064.363525390625	-304.3429565429688	124.8080368041992	-1014.202331542969	-222.7805786132813	720.8348388671876	-806.1079101562502	-163.5130157470703	684.7743530273439	-801.543640136719	-132.7172088623047	696.0215454101564	-807.2712402343752	-168.0140380859375	601.9942626953126	-809.7382812500002	-174.3324279785157	565.0821533203126	-813.7229003906252	-145.3358306884766	532.8771972656251	-939.0684204101565	-276.0017700195313	487.6754455566407	-856.9124755859377	-367.6173400878907	541.0226440429689	-840.903747558594	-361.7649230957032	498.9400329589845	-861.2938232421877	-395.3775634765626	489.0103149414064	-908.178649902344	-586.9637451171876	534.9943847656251	-904.9782714843752	-557.0053100585939	512.7276000976564	-988.9202270507815	-622.9761352539064	594.4864501953126	-965.7941894531252	-603.1239624023439	369.9287414550782	-973.440856933594	-611.8784790039064	369.0270690917969	-935.523376464844	-646.2991333007814	381.1590576171876	-894.4483032226565	
529	2.64	-196.3717651367188	1795.942016601563	-1083.2744140625	-339.9908752441407	1686.919799804688	-1145.845458984375	-339.3634338378907	1684.319946289063	-999.867614746094	-387.7783203125001	1544.81982421875	-1082.901611328125	-406.3764953613282	1212.687255859375	-1057.361206054688	-219.5932617187501	1493.173217773438	-1080.398315429688	-267.8861083984376	1538.479370117188	-1248.725708007813	-115.5976028442383	1496.370727539063	-1373.271728515625	-85.7686233520508	1530.298583984375	-1352.334106445313	-49.09437179565431	1498.434814453125	-1389.983764648438	14.32469749450684	1512.451904296875	-1395.360229492188	28.51776313781739	1444.833984375	-1368.640380859375	318.1236877441407	1565.505493164063	-1316.497314453125	310.2652282714844	1568.917602539063	-1395.61328125	410.7708435058595	1599.636840820313	-1337.91748046875	-259.6267700195313	1547.63525390625	-921.5235595703127	-113.7839508056641	1521.4794921875	-798.651306152344	-86.90338134765626	1548.81494140625	-828.8686523437502	-44.5988998413086	1526.351440429688	-790.1179809570315	21.56340980529786	1535.679321289063	-796.7046508789065	31.56314849853516	1461.70654296875	-819.6907958984377	305.6976928710938	1573.240478515625	-890.676208496094	316.8355407714844	1585.938598632813	-811.0025634765627	396.3602905273439	1606.0712890625	-893.7197265625002	-227.3690490722657	1002.013671875	-1177.8896484375	-240.8511199951172	1021.834838867188	-898.0694580078127	-424.8787231445314	1117.381958007813	-1049.659790039063	-432.7354736328126	1088.101318359375	-1079.186767578125	-438.2310791015626	1085.65869140625	-1023.477783203125	-247.4819946289063	793.7438964843752	-1230.52587890625	-197.5164489746094	725.5084228515626	-1224.108642578125	-151.5283966064453	740.3654785156251	-1218.818237304688	-212.1928100585938	668.8623657226564	-1206.7216796875	-152.3551025390625	533.3573608398439	-1171.25390625	-148.3851165771485	527.7133789062501	-1041.105102539063	-186.5730895996094	321.1014404296876	-1073.266845703125	-228.3292999267579	279.1842651367188	-1140.6591796875	-201.9090423583985	271.3314514160157	-1102.563110351563	-237.0752410888672	206.0744171142579	-1061.460693359375	-330.8048706054688	107.2806472778321	-1099.583129882813	-396.3565063476564	81.87011718750001	-1044.288818359375	-187.5564880371094	54.59360885620119	-1021.589477539063	-182.1356658935547	57.98352432250978	-1064.309204101563	-304.3212280273438	124.7071609497071	-1014.090393066406	-224.6663818359376	719.0358276367189	-806.1943359375002	-165.4871826171875	682.5073852539064	-801.4170532226565	-134.6439056396485	693.9322509765626	-807.1335449218752	-170.4998474121094	599.7768554687501	-809.864196777344	-176.8851318359375	562.8512573242189	-814.1829833984377	-147.287582397461	530.6266479492189	-939.141296386719	-278.8106079101563	486.0025939941407	-857.2204589843752	-370.2403869628907	539.4822998046876	-841.5633544921877	-365.2440795898438	497.953826904297	-861.2083129882815	-398.1745605468751	488.5049743652345	-908.7153930664065	-589.4472045898439	534.4771118164064	-905.8914184570315	-559.5699462890626	512.0881347656251	-989.8725585937502	-624.7965087890626	594.0375976562501	-966.611511230469	-606.1726074218751	369.5779113769532	-974.2725830078127	-615.0734863281251	368.7018432617188	-936.4382324218752	-649.5963745117189	380.8673400878907	-895.5506591796877	
